<svg xmlns="http://www.w3.org/2000/svg" width="70" height="70" fill="none" viewBox="0 0 70 70"><g clip-path="url(#a)"><path fill="#2196f3" d="M69.943 9.896a1.17 1.17 0 0 0-.941-.793l-4.179-.608-1.87-3.787c-.392-.798-1.7-.798-2.092 0l-1.87 3.787-4.18.608a1.167 1.167 0 0 0-.648 1.99l3.026 2.948-.714 4.162c-.074.438.105.88.464 1.142a1.16 1.16 0 0 0 1.23.088l3.737-1.966 3.738 1.966a1.168 1.168 0 0 0 1.693-1.23l-.713-4.162 3.025-2.949a1.17 1.17 0 0 0 .294-1.196M64.556 12.8c-.274.267-.4.655-.335 1.033l.418 2.437-2.189-1.15a1.17 1.17 0 0 0-1.087 0l-2.19 1.15.419-2.437a1.17 1.17 0 0 0-.335-1.033l-1.773-1.726 2.448-.356c.38-.055.708-.294.879-.639l1.094-2.216L63 10.078c.17.345.499.584.879.639l2.448.355zM57.167 44.892h-2.334v2.334h2.334zM57.167 49.56h-2.334v2.332h2.334zM59.5 47.226h-2.333v2.333H59.5z"/><path fill="#2196f3" d="M54.834 47.226H52.5v2.333h2.334zM49 57.726h-2.333v2.333H49zM49 62.393h-2.333v2.333H49zM51.333 60.06H49v2.333h2.333zM46.667 60.06h-2.334v2.333h2.334zM35 53.06h-2.334v2.333H35zM35 57.726h-2.334v2.333H35zM37.333 55.393H35v2.333h2.333zM32.666 55.393h-2.333v2.333h2.333zM12.833 13.392h-2.334v2.333h2.334zM12.833 18.059h-2.334v2.333h2.334zM15.166 15.725h-2.333v2.334h2.333zM10.5 15.725H8.165v2.334h2.333z"/><path fill="#212121" d="M54.064 30.974a3.88 3.88 0 0 0-2.6-1.541 3.89 3.89 0 0 0-2.93.77L45.794 32.3l-.001.002-4.151 3.1-2.97-1.184c5.296-2.376 8.998-7.674 8.998-13.825 0-8.362-6.83-15.167-15.227-15.167s-15.228 6.804-15.228 15.167c0 3.031.907 5.85 2.45 8.222l-6.046-.053h-.01c-.019 0-.034.01-.051.01a1.1 1.1 0 0 0-.34.069c-.028.01-.057.016-.084.029-.014.006-.028.007-.042.014l-7.072 3.491q-.002 0-.003.002l-4.141 1.991a1 1 0 0 0-.138.077A3.895 3.895 0 0 0 .43 39.268a3.88 3.88 0 0 0 2.31 1.944 3.891 3.891 0 0 0 3.016-.281l3.036-1.614 4.952-2.558 2.968-.017L4.808 48.588q0 .002-.003.003l-2.929 2.916a3.6 3.6 0 0 0-1.072 2.577c0 .973.38 1.888 1.072 2.578a3.65 3.65 0 0 0 2.58 1.062c.936 0 1.869-.355 2.582-1.062l2.875-2.863 3.808-2.843 1.97 1.962-3.854 3.837-.003.002-2.928 2.917a3.6 3.6 0 0 0-1.073 2.576c0 .973.38 1.89 1.073 2.579a3.65 3.65 0 0 0 2.58 1.061c.935 0 1.87-.354 2.582-1.061l2.93-2.917 4.686-4.667.002-.003 2.21-2.188-.01-.008c.015-.014.035-.019.049-.034l11.3-12.377 7.593 1.08q.083.012.164.012c.142 0 .278-.034.41-.084.039-.014.072-.033.109-.051.042-.021.086-.033.126-.06l7.029-4.666c.026-.018.04-.046.064-.065.028-.022.063-.031.089-.056l2.78-2.605a3.89 3.89 0 0 0 .465-5.166M4.66 38.872c-.379.203-.81.244-1.221.113a1.564 1.564 0 0 1-.465-2.755l2.874-1.383.692 2.022.29.85zm7.65-3.998-3.387 1.75-.558-1.633-.402-1.174 4.434-2.189zm33.03-14.482c0 2.009-.48 3.904-1.31 5.599l-9.147-4.155a4.07 4.07 0 0 0-1.724-3.035L36.36 8.169c5.202 1.654 8.98 6.506 8.98 12.223m-25.788 0c0-7.076 5.784-12.834 12.894-12.834.553 0 1.094.047 1.63.115L30.943 18.07c-.042 0-.081-.013-.125-.013a4.094 4.094 0 0 0-4.096 4.084 4.094 4.094 0 0 0 4.096 4.083c1.52 0 2.832-.838 3.54-2.066l8.45 3.839c-2.352 3.164-6.114 5.227-10.362 5.227-7.11 0-12.894-5.757-12.894-12.833m13.03 1.75c0 .965-.792 1.75-1.764 1.75a1.76 1.76 0 0 1-1.762-1.75c0-.965.79-1.75 1.762-1.75s1.763.785 1.763 1.75M5.391 55.008a1.33 1.33 0 0 1-1.87 0 1.3 1.3 0 0 1 0-1.846l2.105-2.097L7.49 52.92zm7.03 8.166a1.33 1.33 0 0 1-1.87.002 1.3 1.3 0 0 1 0-1.847l2.106-2.098.88.876.983.978zm7.616-7.588-.003.003-3.86 3.85-.882-.877-.982-.977 3.857-3.84v-.001l.004-.002c.087-.088.142-.193.196-.297.015-.03.044-.056.057-.087.036-.09.042-.187.056-.281.007-.054.03-.104.03-.159 0-.078-.028-.154-.044-.231-.014-.07-.014-.141-.041-.209a1.2 1.2 0 0 0-.2-.3c-.022-.027-.03-.06-.054-.084h-.002q0-.001-.002-.004l-3.515-3.5c-.037-.038-.085-.053-.127-.084a1 1 0 0 0-.19-.127 1 1 0 0 0-.205-.07 1 1 0 0 0-.225-.044 1 1 0 0 0-.209.01c-.078.01-.151.02-.227.045a1 1 0 0 0-.207.098c-.043.024-.092.033-.133.063l-3.879 2.896-1.97-1.963 5.248-5.22 9.538 9.382zm14.916-15.349c-.033-.004-.065.008-.099.006a1.2 1.2 0 0 0-.252.015 1.075 1.075 0 0 0-.404.15 1 1 0 0 0-.181.134c-.028.024-.062.036-.088.064L23.653 51.862l-9.468-9.311 6.198-6.165a1.168 1.168 0 0 0-.831-1.993l-4.854.028.061-3.516 6.79.058a15.2 15.2 0 0 0 10.897 4.596c.957 0 1.89-.1 2.799-.268.087.07.174.14.283.185l5.272 2.1.333 1.66.39 1.936zm8.84.39-.684-3.408 3.164-2.363.828 1.1 1.242 1.65zm8.212-6.193-1.833 1.718-2.037-2.705 1.818-1.394c.34-.261.768-.367 1.188-.313.422.06.796.28 1.05.622a1.56 1.56 0 0 1-.187 2.072"/><path fill="#212121" d="m29.755 40.565-4.688-4.667a1.166 1.166 0 0 0-1.646 0l-4.687 4.667a1.17 1.17 0 0 0 0 1.654l4.687 4.667a1.165 1.165 0 0 0 1.646 0l4.688-4.667a1.167 1.167 0 0 0 0-1.654m-5.51 3.848-3.034-3.02 3.033-3.021 3.035 3.02zM37.547 11.092l-.564 2.266c.156.039 3.802.988 3.802 4.7h2.333c0-4.412-3.644-6.486-5.571-6.966M43.118 20.392h-2.334v2.333h2.334z"/></g><defs><clipPath id="a"><path fill="#fff" d="M0 0h70v70H0z"/></clipPath></defs></svg>