<svg xmlns="http://www.w3.org/2000/svg" width="70" height="70" fill="none" viewBox="0 0 70 70"><path fill="#212121" d="M68.461 33.472C68.458 14.982 53.466-.005 34.975 0 16.485.004 1.5 14.996 1.504 33.486A33.48 33.48 0 0 0 24.799 65.37q.2.063.41.063c.263 0 .521-.071.748-.205.296-.175.516-.453.62-.78l8.455-26.797a4.184 4.184 0 1 0-1.838-7.95L22.025 18.53a1.395 1.395 0 0 0-1.972 1.973l11.163 11.176a4.104 4.104 0 0 0 1.173 5.051l-8.055 25.535C8.414 56.4.262 38.74 6.126 22.82S29.65-1.252 45.571 4.613s24.072 23.524 18.207 39.444A30.72 30.72 0 0 1 47.455 61.5l-.87-4.1a1.394 1.394 0 0 0-2.294-.751l-8.393 7.493a1.394 1.394 0 0 0 .505 2.372l10.716 3.42a1.394 1.394 0 0 0 1.791-1.619l-.855-4.022a33.37 33.37 0 0 0 20.406-30.82m-33.478-1.395a1.395 1.395 0 1 1 0 2.79 1.395 1.395 0 0 1 0-2.79m4.594 32.515 4.778-4.262 1.319 6.213z"/><path fill="#2196f3" d="M33.588 6.967v2.79a1.395 1.395 0 1 0 2.79 0v-2.79a1.395 1.395 0 0 0-2.79 0M8.479 32.077a1.395 1.395 0 0 0 0 2.79h2.79a1.395 1.395 0 1 0 0-2.79zM61.487 34.867a1.395 1.395 0 1 0 0-2.79h-2.79a1.395 1.395 0 0 0 0 2.79z"/></svg>